#######                         ######        #    #       #    
    #    ######   ##   #    #    #     #       #   # #     # #   
    #    #       #  #  ##  ##    #     #       #  #   #   #   #  
    #    #####  #    # # ## #    ######        # #     # #     # 
    #    #      ###### #    #    #   #   #     # ####### ####### 
    #    #      #    # #    #    #    #  #     # #     # #     # 
    #    ###### #    # #    #    #     #  #####  #     # #     #





Well where to start first off thanks Relizlab for one nice video and CARS.2.iPhoneCAM-FU for some pretty good audio THANKS. Ok on my part i used the Russain video and split it up into a whole bunch of splits synced each peice and joined then and it came out damn good bout as good as it gets i think. Now my encode i did alot to just because well cuz i can. 



I adjusted chroma saturation and the regular stuff but i did indeed use a few custom filters i had made from prior encodes so it worked i noticed there is a red overlay in most of the encodes ive saw so i went ahead and corrected it the way i feel it should look.


Format : MPEG-4

Format profile : Base Media / Version 2

Codec ID : mp42

File size : 883 MiB

Duration : 1h 34mn

Overall bit rate : 1 306 Kbps

Writing application : TMPGEnc Video Mastering Works 5 Version. 5.0.5.32



Video

ID : 2

Format : AVC

Format/Info : Advanced Video Codec

Format profile : High@L3.0

Format settings, CABAC : Yes

Format settings, ReFrames : 3 frames

Codec ID : avc1

Codec ID/Info : Advanced Video Coding

Duration : 1h 34mn

Bit rate mode : Constant

Bit rate : 1 201 Kbps / 1 201 Kbps

Width : 720 pixels

Height : 304 pixels

Display aspect ratio : 2.35:1

Frame rate mode : Constant

Frame rate : 25.000 fps

Standard : NTSC

Color space : YUV

Chroma subsampling : 4:2:0

Bit depth : 8 bits

Scan type : Progressive

Bits/(Pixel*Frame) : 0.219

Stream size : 795 MiB (90%)

Writing library : x264 core 112


Color primaries : BT.470-6 System B, BT.470-6 System G, BT.601-6 625, BT.1358 625, BT.1700 625 PAL, BT.1700 625 SECAM

Transfer characteristics : BT.470-6 System B, BT.470-6 System G

Matrix coefficients : BT.470-6 System B, BT.470-6 System G, BT.601-6 625, BT.1358 625, BT.1700 625 PAL, BT.1700 625 SECAM, IEC 61966-2-4 601



Audio

ID : 1

Format : AAC

Format/Info : Advanced Audio Codec

Format profile : LC

Codec ID : 40

Duration : 1h 34mn

Bit rate mode : Variable

Bit rate : 128 Kbps

Maximum bit rate : 529.2 Kbps

Channel(s) : 2 channels

Channel positions : Front: L R

Sampling rate : 44.1 KHz

Compression mode : Lossy

Stream size : 86.5 MiB (10%)


SAMPLE INCLUDED 


Screenshots:
 
http://www.shotpix.com/images/16041052699094187814.png
 
http://www.shotpix.com/images/60301285573497243376.png
 
http://www.shotpix.com/images/70610912199375036792.png
 
http://www.shotpix.com/images/19421888618245007501.png


